<svg id="Ebene_1" data-name="Ebene 1" xmlns="http://www.w3.org/2000/svg" viewBox="0 0 1861.96 1163.45"><defs><style>.cls-1{fill:#fdfeff;}.cls-2{fill:#6b4310;}.cls-3{fill:#80521a;}.cls-4{fill:#e58e11;}.cls-5{fill:#e58f11;}.cls-6{fill:#e58f12;}.cls-7{fill:#e69016;}.cls-8{fill:#fff;}.cls-9{fill:#fefefd;}.cls-10{fill:#e99b31;}.cls-11{fill:#fdf4e8;}.cls-12{fill:#fcedda;}.cls-13{fill:#fdf2e5;}.cls-14{fill:#f9dcb8;}.cls-15{fill:#fdf3e8;}.cls-16{fill:#e79523;}.cls-17{fill:#fdf4e9;}.cls-18{fill:#fceddb;}.cls-19{fill:#e89626;}.cls-20{fill:#fcecd9;}.cls-21{fill:#fbe5cc;}.cls-22{fill:#ea9f3a;}.cls-23{fill:#fae3c8;}.cls-24{fill:#fceddc;}.cls-25{fill:#fcefe0;}.cls-26{fill:#fffcf9;}.cls-27{fill:#fcebd8;}.cls-28{fill:#fdf1e3;}.cls-29{fill:#f9ddba;}.cls-30{fill:#fae5cb;}.cls-31{fill:#f7d5aa;}.cls-32{fill:#fef7ef;}.cls-33{fill:#fef6ed;}.cls-34{fill:#fef9f3;}.cls-35{fill:#fef8f1;}.cls-36{fill:#f9dfbf;}.cls-37{fill:#fef7ee;}.cls-38{fill:#e99a2f;}.cls-39{fill:#fef5eb;}.cls-40{fill:#fdf3e6;}.cls-41{fill:#fdf3e7;}.cls-42{fill:#fdf0e2;}.cls-43{fill:#fbe7cf;}.cls-44{fill:#fbe8d1;}.cls-45{fill:#fbe8d0;}.cls-46{fill:#e58e10;}.cls-47{fill:#fdf5ea;}.cls-48{fill:#fdf4ea;}.cls-49{fill:#f2c181;}.cls-50{fill:#efb161;}.cls-51{fill:#e79625;}.cls-52{fill:#e79420;}.cls-53{fill:#fefbf6;}.cls-54{fill:#fceedc;}.cls-55{fill:#eaa03c;}.cls-56{fill:#e79524;}.cls-57{fill:#fdf1e4;}.cls-58{fill:#e6911a;}.cls-59{fill:#fef9f4;}.cls-60{fill:#fbead5;}.cls-61{fill:#fdf0e0;}.cls-62{fill:#e89729;}.cls-63{fill:#e79422;}.cls-64{fill:#fdf5eb;}.cls-65{fill:#fef8f2;}.cls-66{fill:#fcebd7;}.cls-67{fill:#fceede;}.cls-68{fill:#f5ca95;}.cls-69{fill:#e7931e;}.cls-70{fill:#fae4ca;}.cls-71{fill:#fbe5cb;}.cls-72{fill:#f0b66b;}.cls-73{fill:#eba444;}.cls-74{fill:#eaa03d;}.cls-75{fill:#e8992c;}.cls-76{fill:#fef8f0;}.cls-77{fill:#f8d9b3;}.cls-78{fill:#e89728;}.cls-79{fill:#fef6ee;}.cls-80{fill:#fdf2e6;}.cls-81{fill:#fffefd;}.cls-82{fill:#fef7f0;}.cls-83{fill:#e7931f;}.cls-84{fill:#e79421;}.cls-85{fill:#e8992d;}.cls-86{fill:#f8d8b1;}.cls-87{fill:#e8982c;}.cls-88{fill:#fbe9d4;}.cls-89{fill:#fdf2e4;}.cls-90{fill:#fbe8d2;}.cls-91{fill:#fae2c5;}.cls-92{fill:#fcefde;}.cls-93{fill:#fae3c6;}.cls-94{fill:#fbe6cd;}.cls-95{fill:#fbead4;}.cls-96{fill:#f1bd7a;}.cls-97{fill:#f9dfbe;}.cls-98{fill:#fcf0e1;}.cls-99{fill:#e99b32;}.cls-100{fill:#eba240;}.cls-101{fill:#fcefdf;}.cls-102{fill:#e8992e;}.cls-103{fill:#fdf0e1;}.cls-104{fill:#eba445;}.cls-105{fill:#f6d1a2;}.cls-106{fill:#f8dab5;}.cls-107{fill:#fbe6ce;}.cls-108{fill:#fefaf5;}.cls-109{fill:#fef6ec;}.cls-110{fill:#fcebd6;}.cls-111{fill:#ea9e39;}.cls-112{fill:#fceedd;}.cls-113{fill:#eca74c;}.cls-114{fill:#e8982a;}.cls-115{fill:#e99a30;}.cls-116{fill:#fae4c9;}.cls-117{fill:#fbe7d0;}.cls-118{fill:#fae2c4;}.cls-119{fill:#f9dab5;}.cls-120{fill:#f7d4a8;}.cls-121{fill:#fffcfa;}.cls-122{fill:#f4c78e;}.cls-123{fill:#e89627;}.cls-124{fill:#e99b33;}.cls-125{fill:#6c4411;}</style></defs><polygon class="cls-1" points="1621.61 895.82 1684.38 876.82 1729.15 728.13 1599.02 717.63 1563.12 732.9 1612.88 890.83 1621.61 895.82"/><path class="cls-2" d="M981.15,1163.23c-25.91-46.79-36.53-97.41-39.15-150.22-.45-8.94-1.74-19.59-6.88-26.25-22.84-29.59-21.08-65.12-26.68-98.86-2.43-14.63-3-29.57-5.09-44.27-1.27-8.85-1.15-14.8,7.95-21.24,11.35-8,2.32-21.84-.37-30.57-6-19.51,1.8-27.87,18.34-32.21,17-4.46,21.92-16.08,22.08-31.56.2-20.56.38-41.13.73-61.69.41-23.51,11.51-32.34,35.29-30.22,94.76,8.48,189.48,17.56,284.38,24.16,32.57,2.27,59.7,9.91,76.47,41,35.26-67.06,102.93-96.54,151.26-145.79,35.46-36.14,78.82-49.63,127.21-56.94,65.54-9.9,130.65-22.72,195.64-35.78,14.77-3,21.56-.4,28.2,12.89,34.8,69.61,70.52,138.77,106.06,208,2.75,5.37,3.43,12.22,9.94,15.25V711.7c-6.17,12.18-19,14.65-30,19.06-16.2,6.49-27,16.86-26.6,34.66,1.15,45.17-22.7,71.18-63.07,87.51-16.42,6.65-31.75,16.4-48.91,21.62-18.65,5.68-25.19,1.15-26.31-18.47-1.05-18.4-.52-36.87-.12-55.31.29-13.32,6-21.7,20.36-22.15,12.11-.38,18.83-5.37,17.72-18.33-1.15-13.48-11.21-12.75-20.53-12.82-25.79-.18-51.59-.14-77.38,0-10.48.06-18.33,2.73-18.65,15.22-.29,11,5.61,15.47,15.75,15.67,18.07.35,22.73,11.24,22.64,26.8-.13,22.7-.54,45.41.14,68.09.57,19.08-7.69,30.27-25.83,36.56-30.42,10.56-59.84,24-90.52,33.66-30.24,9.55-56.19,24.49-76.41,48.77-17.31,20.78-38.85,32.6-66.59,33.73-20.56.84-38.35,9.19-54.9,21.73-39.14,29.66-82.59,47.53-133.23,45-18.56-.92-36.86,5-55.61,4.36-8.4-.26-15.83,3.3-19.93,10.58-9.11,16.2-24.57,22.88-40.84,29.08-27.29,10.4-54.25,21.68-83.32,26.53h-12.91a23.48,23.48,0,0,0-21.52,0Z" transform="translate(-104.57 0.21)"/><path class="cls-3" d="M1050,1163.23c7.17-6.22,14.35-6.47,21.52,0Z" transform="translate(-104.57 0.21)"/><path class="cls-4" d="M855.71,129.61c0-33.88.68-67.79-.3-101.65C855,12.34,858.66,3.63,876.19,3.77c14.18.12,30-8.21,42.14-1.12,15.65,9.17,2.06,25.81,3.3,39.11,6.39,68.54,6,137.25,4.92,206-.3,19-6.53,24.16-24.86,24.15-21.91,0-36.93-6.86-50.1-25.2-24.77-34.5-52.48-66.93-81.08-102.89,0,35.1-.9,67.91.37,100.63.64,16.8-2.54,26.2-21.87,23.47-5.54-.78-11.45.17-17.08,1.06-15.71,2.5-23.29-4.45-23.21-19.62q.59-111.65,1.5-223.29c.08-11,5-16.45,16.84-17.26,22.89-1.58,41.32,2.86,55.1,23.92,22,33.7,46.41,65.92,69.8,98.76Z" transform="translate(-104.57 0.21)"/><path class="cls-4" d="M1134.59,451.39c2.11-42.84,5.2-79.37,5.09-115.89,0-15.94,4.92-17.41,18.25-15.2,38.81,6.43,37,6,35.61,46.7-2.07,61.6-.91,123.3-1.85,185-.16,10.74,7,27.22-11,29.8s-38.44,9.34-51.61-12.87c-18.1-30.49-46.41-52.69-66.5-81.67l-5.26,1.61c0,25.21-.26,50.42.09,75.62.26,18.66-9.11,26.15-27.29,27.66-51.75,4.3-53.6,3.42-53.15-48,.52-58.08-3.47-116.27,3.82-174.19,1.32-10.48-2.43-24,11.44-29,22.81-8.32,47.4-3.62,58.94,10.22C1077.54,382.73,1103.83,414.4,1134.59,451.39Z" transform="translate(-104.57 0.21)"/><path class="cls-4" d="M666.85,485c-16,6.15-22.65,17.68-31.14,26.86-11.4,12.33-21.33,12.28-32-.5-6.33-7.55-13.41-14.49-24.59-26.45-2.53,28.24-5.33,51.43-6.52,74.69-1.42,27.76-26.29,43.86-52.11,32.73-7.34-3.17-7.67-9.78-7.25-16.15,5.21-78,3.1-156.07,2.77-234.12-.05-10.57,5.42-13.75,14.74-13.33,17.56.79,32.92,3.28,42.53,22,12.63,24.58,30.38,46.17,49.69,69.81,16.14-26.19,31.43-50.81,46.52-75.55,6.88-11.27,14.41-20.41,29.56-21.3,31.1-1.82,34-.63,32.12,30.51-4,67.91-2.62,135.9-4.28,203.83-.74,30.33-19.68,41.43-48.07,29.82-8.94-3.65-7.47-11-7.82-17.88C669.58,542.43,668.29,514.92,666.85,485Z" transform="translate(-104.57 0.21)"/><path class="cls-4" d="M426.33,158.81c0,29.79-.52,59.6.23,89.37.36,14.27-4.19,20.32-19.39,20.8-41.06,1.29-40.27,1.79-42.78-38.83-3.88-62.49,2.58-124.84,1.55-187.29-.18-10.87-9.68-25.25-.43-31.48C374.14,5.56,389,9.46,401,7.69c20.27-3,26.66,4.24,23.48,24.39-3.87,24.5-1.65,49.32.74,80,26.57-32.58,51.22-59.9,72.31-89.68C512.23,1.6,530.07-2.55,552.75,1.32c21.15,3.6,22.45,6.44,10,23.34-19.78,27-39.14,54.25-59.68,80.64-12.36,15.88-14.25,29.54-2.21,47.29C518.83,179,534.1,207.21,550,234.93c10.55,18.39,8.37,22.35-12.47,26.33-2.81.53-5.62,1.16-8.37,1.93-23.8,6.7-39.79.54-51.33-23.23C464,211.49,446,185.05,429.71,157.72Z" transform="translate(-104.57 0.21)"/><path class="cls-4" d="M1360.8,3.93c8.09,0,11.67,0,15.26,0,40.43-.53,48.08,7.5,47.19,48.37-.24,11.28-7.33,11.54-15.78,12.24-25.66,2.15-51.3,4.55-76.88,7.5S1319.53,95,1317,107c-2.83,13.58,9.34,8.78,16,8.52,15-.6,30-2.46,45-3.13,23-1,23.18,15.54,24.91,31.63,1.82,16.94-1.86,27.38-22.13,26.63-15-.56-30,1.32-45.07,1.79-14.18.45-19.48,6.74-19.52,21.34-.1,39.59-.76,39.65,39.14,36.25,5.69-.48,11.29-1.87,16.94-2.73,37.75-5.78,48.56,6.52,39.09,43.65-2.51,9.81-8.69,12.42-17.44,11.26-42.76-5.69-85.79-4-128.72-4.71-13-.23-18.94-5.85-17-18.27,11.85-77.66-9-155.65,2.43-233.53,1.91-13.13,6.22-15.2,16.05-15.85C1299.53,7.68,1332.41,5.7,1360.8,3.93Z" transform="translate(-104.57 0.21)"/><path class="cls-5" d="M1446.63,141.92c0-36.88.68-73.79-.34-110.65-.39-14,5.41-18.93,18-20.65,39.17-5.35,78.34-8.71,117.62-1.35,43.8,8.21,65.22,35.2,63,79.38-1.48,29.1-9.25,56.07-30.69,77.22-8.91,8.79-10.93,16.89-4.87,28.14,10.75,20,20.22,40.58,30.73,60.68,6.62,12.66,3.65,17.94-11,18.7-40.42,2.11-40.42,2.43-58.59-34-5.69-11.42-12-22.62-16.6-34.46-4-10.2-9.62-14.18-20.89-12.65-11.77,1.61-12.41,9.12-13.5,18.11-2.32,18.95-6.59,37.71-8,56.7-.87,12-6.12,13.27-16.28,13.22-49.11-.24-49.18,0-49.37-49-.12-29.79,0-59.58,0-89.38Z" transform="translate(-104.57 0.21)"/><path class="cls-4" d="M322,462.8c0-41.07.44-82.15-.26-123.22-.21-12.48,7.76-14.67,16.17-15,40.76-1.42,81.54-2.14,122.32-2.82,9.12-.16,14.67,4.62,15.4,14.05,4.11,53,16.2,48.65-39.84,52.28-7.85.5-15.7,1.16-23.51,2.11-26,3.15-29.46,8.34-26.06,35,.9,7.1,3.46,10.24,10.59,9.94,5-.21,10-.09,15-.12,35.39-.25,37.53,2.82,31.87,37.51-1.61,9.88-5.24,13.75-14.89,13.36-6.42-.26-12.88.1-19.32.28-27.33.81-26.86,1.1-23.28,28.68,1.46,11.34,5.83,14.08,16.35,13.46,18.56-1.07,37.2-.88,55.79-1.62,11.74-.47,17.51,4.27,16.5,16.18-.06.7-.11,1.41-.11,2.12.22,43-1.68,45.53-51.53,51-28.4,3.13-57.07,3.74-85.55,6.28-16.1,1.43-21.35-4.81-21-20.49.8-39.67.26-79.37.26-119Z" transform="translate(-104.57 0.21)"/><path class="cls-4" d="M865.35,331.93c20,0,40.13.62,60.15-.19,16.34-.66,23.89,6.77,25,22.1.34,5-.11,10,.61,14.87,2.53,17.12-3.71,24.08-22.11,24.09-22.81,0-45.58,4.29-68.43,5-22.17.71-17,15.93-17.15,28.42-.21,16.25,11.52,10.16,19.94,9.86,7.15-.25,14.29-.89,21.45-1.1,37.91-1.13,37.4-1,42.44,36.5,1.84,13.71-4,18.25-16.07,18.82-20,.93-40,2-60.07,2.53-8.42.24-15.13.64-9.14,11.65.95,1.76.94,4.09,1.17,6.18,3.89,35.67,3.88,35.7,41.17,35,13.56-.27,27.23.24,40.66-1.29,18.17-2.07,25.73,4.33,27.29,22.89,1.73,20.65-10,24-25.73,24.88-31.43,1.67-62.88,3.06-94.32,4.71-12.85.67-25.72,1.37-38.51,2.66-11,1.11-17.28-1.55-13.53-13.89,3.63-11.93,1.76-24,.81-35.89-5.38-67.39,5-134.6,1.92-201.94-.54-11.52,5.78-14.84,15.87-14.82q33.3.06,66.61,0Z" transform="translate(-104.57 0.21)"/><path class="cls-5" d="M1105.86,13.62c46.79,6.09,108.31,53.32,112.32,123,2.86,49.69-32.84,104.68-85.46,122.43-42.23,14.24-86.25,19.56-130.74,21.14-14.31.51-21.31-5.89-21-20.29.45-18.42.55-36.84.8-55.26-1.71-19.45,17.5-29.56,21.21-46.59,3.31-11.06,21.32-13.53,17.18-28.86-3.63-3.62-8.3-1.9-12.54-2.41-9.83-3.48-8.32-9.45-3.65-16.11,5.54-5.68,14.9-8.52,14.22-18.81-.35-3.56-1.35-7-1.76-10.56-1.53-3.69,4.63-9.67-3.57-11.4a6.26,6.26,0,0,1-2.64-7c12-17.53,30.55-27.51,46.67-40.31,4.38-2.41,10.33-5.69,13.37-1.05,4.9,7.45-3.15,12.32-6.9,18.71,10-5.77,17.15-15.82,29.58-15.72a12.86,12.86,0,0,1,7.43,9.07c.41,2.8.29,5.59.77,8.7,3.81-3.86,18.06-4.9,2.18-14C1097.36,22.26,1098.5,17.41,1105.86,13.62Z" transform="translate(-104.57 0.21)"/><path class="cls-5" d="M1330.59,593.16c-29.38,4.29-54.56-6.1-78.59-21.39-8.13-5.17-10.12-11.41-6.76-19.76,3.43-8.53,7.36-16.86,10.76-25.41,4.46-11.22,11.47-13.75,21.62-6.8,10.83,7.41,23.11,11.05,35.91,12.88,11,1.57,20.4-2.87,25.52-12.06,5-8.9-2.21-16-8-22-21.08-21.78-49.74-32.86-74-50.28-19.27-13.83-23.33-30.31-18.42-51.35,5.12-22,16.87-39.78,32-56.58,34.23-38,94.76-23.42,120.43-.19,6.48,5.87,16.4,13.07,12.42,22.42-6,14.17-14.73,27.56-24.35,39.69-3.19,4-9.38-3.86-14.13-6.43-11-5.94-19.22-16.54-34-16-11.88.42-21,2.53-25.59,14.48s.87,20.47,9.83,27.69a196.59,196.59,0,0,0,45.38,27.89c54.34,23.46,51,30,45,79.22-4.82,39.52-18.71,62.31-70.7,63.66C1333.44,592.86,1332,593,1330.59,593.16Z" transform="translate(-104.57 0.21)"/><path class="cls-5" d="M199,481.5c3.53-47.28,5.2-94.63,6.61-142,.11-3.41.47-8.72,2.55-9.86,16.37-9,33.56-2.15,50.26-.74,11,.94,12,12.26,11.33,20.16-5.14,61.36-3.65,123.06-8.61,184.27-2.4,29.56-22.95,53.45-52.24,65.22-32.5,13.05-63.44,7.4-90.61-14.19-22.45-17.83-16.16-56.94,10.11-67.45,4.39-1.76,8.39-1.15,11.77,2.24,3,3,5.59,6.55,8.94,9.12,23.38,17.93,42.25,11.08,47-17.24C197.8,501.31,198.1,491.35,199,481.5Z" transform="translate(-104.57 0.21)"/><path class="cls-6" d="M662.62,142.56c0,32.62-1.28,65.32.49,97.85,1,18.61-6.24,24.94-23.37,27.4-36.36,5.23-40.67,2.51-41.07-33-.75-68.82-.88-137.65-1.95-206.47C596.48,12.8,600.49,4,618,4.8c16.4.75,37.32-6.41,37.8,20.8.68,39,.17,78,.17,117Z" transform="translate(-104.57 0.21)"/><path class="cls-7" d="M1105.86,13.62c-1.93,4.46-6.41,9.14,1.14,12.77-.27,6-2.8,9.57-9.56,8.31l-4.59-9.17c-11.55,4.39-20.43-9-32-4.69-22.32,8.13-37.42,24.31-49.61,43.71q2,1.94,4,3.85c1.19,12.66-13.7,14.2-16.81,23.84-1.41,4.35-8,11.59,4.67,8.71a7.14,7.14,0,0,1,5.24,2.25c1.24,3.06,1,5.83-1.51,8.18-2.3,5.19-6.73,11,3.56,12.68a3.24,3.24,0,0,1,1.94,2.89c0,1.26-.21,1.88-.53,1.88-6.22,5.77-17.27,8.26-14.17,20.36,1.51,2.56,2.43,5.63,5.94,6.39a4.81,4.81,0,0,1,3.39,2.54c.48,20.22-21.72,28.41-25.19,46.53C974.11,145.57,977.44,86.23,978,27c.22-23,6-28,28.5-25.31C1039.64,5.61,1073.69,2.08,1105.86,13.62Z" transform="translate(-104.57 0.21)"/><path class="cls-8" d="M1505.56,822.33c.21-52.16,34.59-85.64,87.64-85.35,50.59.27,85.21,35.22,85.21,86,0,52.21-37.2,89.75-88.15,88.95C1540,911.13,1505.36,874.47,1505.56,822.33Z" transform="translate(-104.57 0.21)"/><path class="cls-8" d="M1376.87,827.41c0,21-.68,42,.26,62.89.54,12.22-1.58,17.69-15.94,17.1-38-1.55-30.42,3.24-30.72-30.29-.35-39.7.62-79.43,0-119.13-.19-12.48,2.73-16.16,16.28-17.46,25.43-2.42,41,4.76,50.32,29.63,7.44,20,19.69,38.17,33.94,56,0-22.73,1-45.52-.39-68.16-.78-12.77,1.45-17.29,15.5-17.08,30,.47,30-.39,30,28.38,0,40.43-.43,80.85.2,121.26.18,12.06-2,16.24-15.91,17.47-26.19,2.31-42.35-5.53-52.05-30.57-7-18.18-18.46-34.7-27.93-52Z" transform="translate(-104.57 0.21)"/><path class="cls-8" d="M1138.2,822.16c0,26-1,47.5.35,68.89.78,12.78-4.13,18.45-15.38,14.77-10.27-3.37-30.16,12.89-30.2-13.07-.07-46.07.39-92.14-.25-138.21-.16-11.51,4-13,14.57-14.2,25.62-2.77,42.29,3.85,52.13,29.91a218.59,218.59,0,0,0,32.78,58.57c0-24.79,1-46.38-.32-67.84-.88-14.73,1.32-21.47,18.89-20.46,27.88,1.62,28,.3,27.89,28.77-.1,39.69-.63,79.39-.08,119.07.19,12.89-2.33,17.65-17.22,19-25.72,2.35-40.81-5.73-50.79-29.72C1163,859.48,1154,841.18,1138.2,822.16Z" transform="translate(-104.57 0.21)"/><path class="cls-9" d="M1007.45,823.39c0-21.92.94-43.89-.33-65.74-.85-14.57,4.66-17.58,18.22-17.36,32.52.53,32.54-.13,32.43,32.67-.13,38.18-1,76.37-.06,114.53.37,15.12-4.54,20.57-19.39,18.63a99.11,99.11,0,0,0-19.26-.14c-9.49.62-12.17-3.7-12-12.6.46-23.32.16-46.66.16-70Z" transform="translate(-104.57 0.21)"/><path class="cls-10" d="M757.29,60.23c.57,3.5,1.32,6.9,5.06,8.56.15,12.86-15.66,14.54-18.19,25.5a36,36,0,0,1-4,4.11c-24.61-3.72-26.42-8.06-17.95-49.15,7.84,23.84,19.46,27.81,35,10.77Z" transform="translate(-104.57 0.21)"/><path class="cls-11" d="M740.75,92.47c2.25-12.32,15.38-14.91,21.6-23.68,3.08-1.55,6.11-3.23,9.25-4.64,4.71-2.11,10.67-8.18,14.25-1,3.73,7.48-5.85,7.28-9.61,10.23-6,4.66-12.45,8.64-18.72,12.9C752.71,90.42,750.4,101.19,740.75,92.47Z" transform="translate(-104.57 0.21)"/><path class="cls-12" d="M852.18,157.91c-9.37.93-10.75,10.08-15.95,15.29-2.09,2.09-2.86,7.3-7.18,3.07-2.22-2.18-5.4-6-4.74-8,2.9-8.75,8.76-16.62,16.6-20.81,9.25-4.94,10.33,6,14.6,10.54Q853.77,160.46,852.18,157.91Z" transform="translate(-104.57 0.21)"/><path class="cls-13" d="M882,188c-2.28,14.13-16.34,19-23.61,29.21-2.43,3.43-5.86,2.55-8.39-.84-2.28-3.07-3.34-6.19.06-9.08,4.76-4.06,9.68-7.94,14.52-11.9C868.83,189.29,872.46,181.8,882,188Z" transform="translate(-104.57 0.21)"/><path class="cls-13" d="M761.83,103c6.22-10.63,17.33-16.25,25.83-24.56,2.37-2.33,5.57-4.53,8.94-.49,3.76,4.52,2,7.22-2.33,9.92-10.78,6.64-21.4,13.53-32.09,20.32C760,106.59,759.9,104.85,761.83,103Z" transform="translate(-104.57 0.21)"/><path class="cls-14" d="M771.62,117.4c9.2-7.05,18.5-14,27.56-21.2,3.15-2.51,6.25-3.73,9.17-.65,3.54,3.75,2.79,8.28-1.28,10.76-9.73,5.93-17.54,15.54-29.39,17.62Z" transform="translate(-104.57 0.21)"/><path class="cls-15" d="M797.35,132.79c-.75-4.67-1.22-5.75-.93-6,6.74-6.12,10.19-16.82,21.7-16.1,1.49.09,4.49,5.62,3.77,6.75C816.42,126.05,807.3,128.87,797.35,132.79Z" transform="translate(-104.57 0.21)"/><path class="cls-16" d="M873.28,223.1c-1.9-14,10.06-19.09,17.73-26.94l-.11-.11c3.11,13.25-7,20.89-13.11,30.22C874.34,227.93,873.58,225.83,873.28,223.1Z" transform="translate(-104.57 0.21)"/><path class="cls-17" d="M891,196.16c1.4-11.82,12.08-16.36,21.19-29.11,1.25,21-8.7,26-21.3,29Z" transform="translate(-104.57 0.21)"/><path class="cls-18" d="M860.36,191.83l-9.05,4.31c8.35-7.86,7.78-27,26.52-21.15C879.1,187.82,868.36,188.43,860.36,191.83Z" transform="translate(-104.57 0.21)"/><path class="cls-19" d="M890.66,122c-10.82-15.23-7.34-21.85,12.53-23.8C907.21,110.32,893,113.09,890.66,122Z" transform="translate(-104.57 0.21)"/><path class="cls-20" d="M876.77,87.93c-1.06-19.05,7.7-24.54,21.56-26Z" transform="translate(-104.57 0.21)"/><path class="cls-21" d="M890.66,122c-1.46-10.84,9.57-15.24,12.53-23.8,9.25-4.89,10,1.15,7.82,7C907.7,114.29,899,118.18,890.66,122Z" transform="translate(-104.57 0.21)"/><path class="cls-11" d="M888.11,51.74c2-12,8.76-17.43,16-23.12C904.36,42,904.36,42,888.11,51.74Z" transform="translate(-104.57 0.21)"/><path class="cls-13" d="M810.5,148.61c5.13-12.42,11.22-17.87,20.65-19.19.9-.12,3.6,3.7,3.19,4.41C830,141.35,822.27,144.19,810.5,148.61Z" transform="translate(-104.57 0.21)"/><path class="cls-22" d="M860.36,191.83c4.57-6.9,14.53-8.3,17.47-16.84,7.4,2.45,8.27,7,4.19,13-7.32-1-11.11,6.08-17.42,7.39Z" transform="translate(-104.57 0.21)"/><path class="cls-23" d="M746.89,236.76c-3.25.64-5.69-.8-5.88-3.83-.35-5.87,3.71-8.22,8.91-9,3.1-.44,7.45-2.22,6.88,3.63C756.26,233.27,751.26,234.83,746.89,236.76Z" transform="translate(-104.57 0.21)"/><path class="cls-24" d="M748.42,102.69c-5.55,9.31-12.82,16.8-24.71,23.92,2.39-14.79,14-17.68,20.47-24.92A3.22,3.22,0,0,1,748.42,102.69Z" transform="translate(-104.57 0.21)"/><path class="cls-15" d="M761.83,103c.12,1.73.24,3.45.35,5.19q-9.28,12.09-18.59,24.17l-7.27-7.12Z" transform="translate(-104.57 0.21)"/><path class="cls-25" d="M749.65,145.35l-4.8-4.32c-1.51,1.58-3,1.64-4.45-.07,2.75-4.75,8.55-12.45,11.1-9.75,5.12,5.41,10.39,14.16,1.47,22C750.27,151.27,750.48,148.1,749.65,145.35Z" transform="translate(-104.57 0.21)"/><path class="cls-13" d="M735.12,212.17c3.57-10.19,10.15-13.87,16.69-19.24C755.64,207.3,747.4,209.53,735.12,212.17Z" transform="translate(-104.57 0.21)"/><path class="cls-13" d="M746.27,41.81c3.81-5.52,3.18-14.69,11.77-15.58,1.75-.18,5.92,4.29,5.54,5.18C760.6,38.34,754,40.73,746.27,41.81Z" transform="translate(-104.57 0.21)"/><path class="cls-10" d="M748.42,102.69l-4.24-1-4-3.29c.19-2,.39-4,.58-5.92,7.36,2.64,10.6-5.69,16.77-6.2C757.7,93.5,755.94,99.66,748.42,102.69Z" transform="translate(-104.57 0.21)"/><path class="cls-26" d="M912.8,204.63c1.49,15.29-7.69,14.88-19,19.11C900.3,214.13,904.32,208.53,912.8,204.63Z" transform="translate(-104.57 0.21)"/><path class="cls-27" d="M757.23,60c1.31-9.32,7.7-11.91,18.37-13.78-4.32,10.21-9.91,13.92-18.31,14Z" transform="translate(-104.57 0.21)"/><path class="cls-28" d="M740.4,141l4.45.07c-5.26,7-9.8,14.94-21.78,17.35C728.15,149.56,733.49,144.49,740.4,141Z" transform="translate(-104.57 0.21)"/><path class="cls-15" d="M749.65,145.35l3.32,7.89c-4,4.69-7.82,9.59-16.67,7.81Z" transform="translate(-104.57 0.21)"/><path class="cls-29" d="M909.1,150.3c-1.11,6.66-5,10.52-10.23,12.94-.76-.14-1.84-.17-1.87-.36C895.63,153.49,904.15,153.62,909.1,150.3Z" transform="translate(-104.57 0.21)"/><path class="cls-28" d="M852.18,157.91q1.67.12,3.33.09c2.5,3.05,7.25,5.71,2.74,10.32-2.68,2.75-6.8,3.71-9.31.51C845.53,164.49,850.58,161.45,852.18,157.91Z" transform="translate(-104.57 0.21)"/><path class="cls-30" d="M873.28,223.1l4.51,3.17c-2.1,4.33-4.85,11.3-10,6.75C861.48,227.53,869.35,225.44,873.28,223.1Z" transform="translate(-104.57 0.21)"/><path class="cls-25" d="M901,137c1.5-7,5-9.95,9.69-12.12C913.71,132.28,909.69,135,901,137Z" transform="translate(-104.57 0.21)"/><path class="cls-31" d="M915.84,226.4c-1,7.32-2.22,12.56-7,11.61-6.22-1.23-1.14-5,.23-7.2C910,229.27,912.34,228.57,915.84,226.4Z" transform="translate(-104.57 0.21)"/><path class="cls-32" d="M1053.41,457.46c5.5-15.21,16.86-22.41,23.87-32.77,3.91-5.79,8.45-7.12,13.07.06,3.26,5.07,6.94,9.82-.74,13.77C1078.48,444.22,1069.7,454.22,1053.41,457.46Z" transform="translate(-104.57 0.21)"/><path class="cls-33" d="M1032.55,438.56c9.53-11.34,19-22.74,28.63-34,2.69-3.15,3.9-11,10.56-4.35,3.84,3.85,5.83,9,.6,12.82-13.48,9.8-21.85,26.13-39.6,30.42A4.4,4.4,0,0,1,1032.55,438.56Z" transform="translate(-104.57 0.21)"/><path class="cls-33" d="M1041.11,387.85c6-.89,5.41-18.6,16.6-6.45,9.29,10.09-1.32,13.5-6.77,17.3-9.1,6.35-14.6,17.74-27.13,19.28C1018.05,401.45,1032.49,396.29,1041.11,387.85Z" transform="translate(-104.57 0.21)"/><path class="cls-34" d="M1165.77,498.48c17.88-8.82,9.8,8.81,8.86,10.64-6.22,12.12-17.56,19.83-30.34,22.77-5.23,1.2,1.24-4.43.72-7.06C1146.66,512,1154.18,503.66,1165.77,498.48Z" transform="translate(-104.57 0.21)"/><path class="cls-35" d="M1141.07,520.3c-3.25,3.74-6.74,7.31-9.69,11.27-4.17,5.6-7.49,4.06-11.89,0-5.13-4.73-4.34-8,1-11.48,10.06-6.63,20-13.39,30-20.1C1155.25,510.36,1147.24,514.91,1141.07,520.3Z" transform="translate(-104.57 0.21)"/><path class="cls-36" d="M1019.92,447.76c-6.58,8-13.15,15.92-19.92,24.13-4.9-18.65,2.28-29,25.47-37.37C1028,440.74,1026.14,445.14,1019.92,447.76Z" transform="translate(-104.57 0.21)"/><path class="cls-37" d="M1148.87,490.28c2.08-14.17,1.4-26.68,17.26-29.35,3.39-.57,8.39-.18,8.14,4.3C1173.45,479.79,1159.51,481.46,1148.87,490.28Z" transform="translate(-104.57 0.21)"/><path class="cls-38" d="M1041.11,387.85c-4.13,11-15.56,17.82-17.3,30.13-4,6.67-8,6.22-11.95-.1-4.27-9,4.63-12,8.1-17.53C1024.45,391.93,1032.7,389.77,1041.11,387.85Z" transform="translate(-104.57 0.21)"/><path class="cls-30" d="M1155.8,389.5c9.88-12.92,14-23.47,25.69-31.9C1183.15,375.88,1174.5,383.29,1155.8,389.5Z" transform="translate(-104.57 0.21)"/><path class="cls-39" d="M1020,400.35c.65,7.36-6.74,11.08-8.1,17.53l-9.41,12.3c-8.23,1-5.86-4.06-4.92-8.33C1000.59,410.17,1008.19,403.13,1020,400.35Z" transform="translate(-104.57 0.21)"/><path class="cls-40" d="M1123.87,487.72c-4.15,13.76-9.72,20.25-18.31,23.18-3.37,1.15-6.87-4.43-6.14-6.77C1102.41,494.57,1112,493.66,1123.87,487.72Z" transform="translate(-104.57 0.21)"/><path class="cls-41" d="M1155.19,423.82l21.51-31.39C1183.11,411.06,1172.83,416.54,1155.19,423.82Z" transform="translate(-104.57 0.21)"/><path class="cls-42" d="M1094.42,492.91c8.07-10.39,12.15-15.94,16.56-21.22,2.56-3.06,5.28-7.3,9.87-2,3.56,4.08,3.05,7.92-1.36,10.49C1113.09,483.88,1106.28,486.93,1094.42,492.91Z" transform="translate(-104.57 0.21)"/><path class="cls-22" d="M1141.07,520.3l9.42-20.29c4.78-3.71,9.8-4.82,15.28-1.53L1145,524.83Z" transform="translate(-104.57 0.21)"/><path class="cls-10" d="M1019.09,503.44c4.33-2.38,8.72-3.46,13.31-.68,3.87,9.3-6.29,12.77-8.32,19.62-5.9,8.55-8.68.19-12.55-2.27C1008,511.85,1018.15,509.7,1019.09,503.44Z" transform="translate(-104.57 0.21)"/><path class="cls-20" d="M1019.09,503.44c1.77,7.47-4.9,11.18-7.56,16.67-6.63,2.09-4.56,14.37-16,11.91C997.24,517.49,1008.72,510.88,1019.09,503.44Z" transform="translate(-104.57 0.21)"/><path class="cls-17" d="M1022.29,380.82c5.07-11.08,7.11-18.54,14.94-21.26,3.15-1.09,5.27,3.2,5,5.36C1040.92,373.4,1034.2,376.39,1022.29,380.82Z" transform="translate(-104.57 0.21)"/><path class="cls-43" d="M1090.57,463c.68-8.84,5.68-13,12.25-15.45.76-.29,5,4.7,4.48,5.56C1103.92,459.13,1098.77,463,1090.57,463Z" transform="translate(-104.57 0.21)"/><path class="cls-44" d="M1155.43,565.87c4.32-7.85,8.27-12.48,15.9-8.14,1.38.79,3,3.85,2.49,4.77C1169.78,569.84,1163.35,567.59,1155.43,565.87Z" transform="translate(-104.57 0.21)"/><path class="cls-45" d="M1022,353.22c-7.68,7.46-10.49,14.27-18,10.37-1.78-.93-3.52-6.14-2.63-7.2C1006.07,350.84,1012.34,354.08,1022,353.22Z" transform="translate(-104.57 0.21)"/><path class="cls-46" d="M1019.92,447.76l5.55-13.24,7.08,4,.19,4.88C1025,454.84,1023.86,455.21,1019.92,447.76Z" transform="translate(-104.57 0.21)"/><path class="cls-29" d="M1096.35,474.16c-2,7.9-3.72,13.27-11,12.84-1.29-.08-3.66-3.4-3.36-4.75C1083.42,475.89,1088.39,474.3,1096.35,474.16Z" transform="translate(-104.57 0.21)"/><path class="cls-47" d="M1024.08,522.38c-2.28-8.64,6.75-12.58,8.32-19.62l.52.4c8-.55,6.44,3.92,4.52,8.55C1034.74,517.42,1030.12,520.78,1024.08,522.38Z" transform="translate(-104.57 0.21)"/><path class="cls-48" d="M1011.11,485.4c-1.24,10.23-5.52,14.27-12,17.58C996.63,493.72,1000.1,488.91,1011.11,485.4Z" transform="translate(-104.57 0.21)"/><path class="cls-44" d="M1150.33,454c-2.41-4.88-2.72-9.56,1.2-13.48.62-.61,5,.83,5,1.53C1156.94,447,1154.73,451.07,1150.33,454Z" transform="translate(-104.57 0.21)"/><path class="cls-22" d="M1009.1,379.71c1.59,2.48,4,4.54,3.94,6.52-.1,2.93-2.86,4.46-5.87,2.95-2.43-1.21-4.8-3.23-3.45-6.26C1004.31,381.62,1006.67,381.09,1009.1,379.71Z" transform="translate(-104.57 0.21)"/><path class="cls-27" d="M1148.35,542.05c.39,7.58-1.91,12.2-6.5,11.35-6.13-1.14-2.07-5,.07-7.3C1143.3,544.62,1145.44,543.83,1148.35,542.05Z" transform="translate(-104.57 0.21)"/><path class="cls-49" d="M1037.44,511.71c-.8-3.22.4-7.48-4.52-8.55.93-3.56,4.34-7.52,6.63-5.35C1044.18,502.18,1041.53,507.51,1037.44,511.71Z" transform="translate(-104.57 0.21)"/><path class="cls-34" d="M1023.74,566.8c-1.52,4.87-4.56,6.07-8.29,5.22-1.63-.37-4.29-1.14-2.67-4.12,1.77-3.24,4.25-5.67,8.16-4.85C1022.77,563.43,1024.68,565,1023.74,566.8Z" transform="translate(-104.57 0.21)"/><path class="cls-50" d="M997.53,421.85c1.19,3,0,7.47,4.92,8.33-1,3.52-3.72,7.8-6.78,4.86C991.88,431.41,993.73,425.87,997.53,421.85Z" transform="translate(-104.57 0.21)"/><path class="cls-51" d="M636.77,434.22c3.25-4.1,9.68-6,9.07-12.78,8.68-1.4,14.6-7.46,21.23-12.32l29.47-25.46c5.66-1.48,12.57-1.22,13.45-9.4,2-2.75,7.21-6.43,7.5-3.12.75,8.62,6.83,19.81-6.3,25.4-19.12,9.86-28.09,30-44.25,42.86-8.61,1.54-2.8,26.71-21,12.58a11.5,11.5,0,0,1-4.62-6.09C639.77,442,639.85,437.53,636.77,434.22Z" transform="translate(-104.57 0.21)"/><path class="cls-52" d="M572.49,443c-7,7.86,0,24.89-17.33,25.92-3.25-5.67-2-11.34,0-17l-4.29-12.86c3.09-8.47,9.4-14.29,16.39-19.56,8.55-3.92,14.94-11.38,24-14.52-2.25,9.36,15.9,1.35,11.15,12.83C591.69,425.34,585.4,438,572.49,443Z" transform="translate(-104.57 0.21)"/><path class="cls-53" d="M645.52,443.33l.42,8.65c-9.12,9.63-17.89,19.63-27.54,28.71-3.53,3.31-6.86,13.36-14.29,4.54-6.14-7.3,1.07-10.91,5.52-15.1a71.77,71.77,0,0,0,5.32-6.2C622.38,453.05,629.5,441.73,645.52,443.33Z" transform="translate(-104.57 0.21)"/><path class="cls-41" d="M666.94,439.4c7.22-17.53,20.94-30.25,33.32-43.93,3.83-4.23,8-6,10.93,1.07C701,415.45,686.93,430.41,666.94,439.4Z" transform="translate(-104.57 0.21)"/><path class="cls-54" d="M551.17,425.64c-4.25-19.06,11.11-28.17,20.89-40,2-2.37,5.11-2.34,7.14.24,1.15,1.46,2.46,4.17,1.84,5.39-2.46,4.85-5.66,9.33-8.58,13.95C567.62,414.31,566.24,427,551.17,425.64Z" transform="translate(-104.57 0.21)"/><path class="cls-55" d="M645.52,443.33c-12.68,3.26-18,17.16-30.57,20.6-5.7-8.81,2.48-11.79,7-16.17,4.82-4.62,12.37-6.31,14.79-13.53C642.25,434.85,645.57,437.51,645.52,443.33Z" transform="translate(-104.57 0.21)"/><path class="cls-56" d="M551.17,425.64c10-3.82,12.66-15.2,21.29-20.45l4.09,4c2.77,7.69-4.26,8.93-8.21,12.19a43.4,43.4,0,0,1-17.46,17.63C547.72,434.52,548.39,430.06,551.17,425.64Z" transform="translate(-104.57 0.21)"/><path class="cls-57" d="M685.94,454.6c3.72-12.51,8.89-23.61,23.59-28.8C711.46,444,694.47,446.34,685.94,454.6Z" transform="translate(-104.57 0.21)"/><path class="cls-58" d="M693.18,370.19c-2.63,5.34-6,10-12.92,8.23-3.07-.77-4.84-4.59-2.21-6.4,7.43-5.1,7.62-22.48,23.27-13.91C704.14,365.78,697.21,367,693.18,370.19Z" transform="translate(-104.57 0.21)"/><path class="cls-59" d="M572.49,443c9-9.48,14.37-23.28,29.91-25.2C596,430.33,591.37,445,572.49,443Z" transform="translate(-104.57 0.21)"/><path class="cls-11" d="M543,381.55c3.61-4.91,6.81-10.2,11-14.6,2.54-2.69,4.37-10.64,10.71-3.45,4.63,5.26,2.28,8.67-2.66,11.59-5.28,3.11-10.6,6.15-15.91,9.23Z" transform="translate(-104.57 0.21)"/><path class="cls-60" d="M533.22,404.24c4.4-7.79,11.16-11,21.54-11.36-7,10.25-15,18-17.66,28.72C526.85,417.78,532.35,410.5,533.22,404.24Z" transform="translate(-104.57 0.21)"/><path class="cls-61" d="M604,448.56c-5.37,5.91-5.13,16.88-15.56,16.24-1.35-.08-4.08-5.35-3.36-6.58C589.09,451.45,594.11,445.44,604,448.56Z" transform="translate(-104.57 0.21)"/><path class="cls-62" d="M559.13,557v19.55c-4.77-3.36-12.43-1-12.46-9.27C546.65,560.2,550.77,557.15,559.13,557Z" transform="translate(-104.57 0.21)"/><path class="cls-35" d="M684.71,485.12c-3.82-18.35,7.48-21.65,16.59-30.73C700.41,468.3,692.46,473.94,684.71,485.12Z" transform="translate(-104.57 0.21)"/><path class="cls-63" d="M555.17,451.91c4,5.67,3.92,11.34,0,17l-12.33,0c-3.26-2.62-2.93-5.51-.65-8.54Z" transform="translate(-104.57 0.21)"/><path class="cls-15" d="M542.18,460.41q.32,4.26.65,8.54c-3.65,4-7.3,8-11.66,12.83C526.57,469.09,532.88,463.92,542.18,460.41Z" transform="translate(-104.57 0.21)"/><path class="cls-64" d="M568.34,421.42l8.21-12.19c5.29-.11,6.36-14.48,14.7-4.26C584.22,411.27,581.05,422.86,568.34,421.42Z" transform="translate(-104.57 0.21)"/><path class="cls-29" d="M533.22,404.24c1.1,5.83-1.73,12.52,3.88,17.36-1.37,4.47-2.23,8.85,2.18,12.32-2.75,3.5-5.9,3.61-9.36,1.07C530,424.63,526.48,413.9,533.22,404.24Z" transform="translate(-104.57 0.21)"/><path class="cls-65" d="M693.18,370.19l8.14-12.08,4.7-3.92c8.25-.6,5.93,4.22,4.5,8.59C705.75,367.56,700.92,372.21,693.18,370.19Z" transform="translate(-104.57 0.21)"/><path class="cls-13" d="M529.92,435l9.36-1.07c4.08,8.34-4,11.18-6.69,19.2C527.93,445.42,529.5,440.13,529.92,435Z" transform="translate(-104.57 0.21)"/><path class="cls-66" d="M667.07,409.12c-4.27,8.84-10.61,14.2-21.23,12.32C652.85,417.21,657.42,408.88,667.07,409.12Z" transform="translate(-104.57 0.21)"/><path class="cls-67" d="M710,374.26c4.32,15.48-8,7.7-13.45,9.4Z" transform="translate(-104.57 0.21)"/><path class="cls-15" d="M563.24,478.15c.56,13.12-3.91,16.43-10.82,18.75C551.31,488.65,558.32,486.44,563.24,478.15Z" transform="translate(-104.57 0.21)"/><path class="cls-37" d="M685.61,535.61c-3-8.42-.49-12.06,5.39-14.67C694.61,528.31,689.77,531.51,685.61,535.61Z" transform="translate(-104.57 0.21)"/><path class="cls-68" d="M710.52,362.78c-.27-3.5-.14-7.19-4.5-8.59,1.13-3.42,4.64-7.35,6.76-5C716.54,353.26,716.09,359,710.52,362.78Z" transform="translate(-104.57 0.21)"/><path class="cls-7" d="M391.87,174.45c-.65,3.36-1,8.26-5.59,6.82-3.94-1.24-6.86-6.19-4.32-10.32,4.93-8,11.67-14.2,22.38-13.09C407.2,168.56,396.91,169.57,391.87,174.45Z" transform="translate(-104.57 0.21)"/><path class="cls-67" d="M511.67,57.43c0,2.45.29,3.49-.05,3.77-7.53,6.18-16,10.2-25.93,10.41-.82,0-2.9-4.3-2.41-4.85C491,58.14,501.92,60.67,511.67,57.43Z" transform="translate(-104.57 0.21)"/><path class="cls-69" d="M452.4,123.83c5.94-2.65,12.64-4.21,8.17,5.51C457.88,135.18,452,140.66,444,141,437,130.52,445.83,127.73,452.4,123.83Z" transform="translate(-104.57 0.21)"/><path class="cls-66" d="M452.4,123.83c-1.61,6.29-11.35,8.66-8.44,17.13-5.84,2.18-10.66.73-9.72-5.88C435.65,125.18,442.88,122.13,452.4,123.83Z" transform="translate(-104.57 0.21)"/><path class="cls-18" d="M390.13,200.53c6.77-12.39,13-17.29,21.89-21C414.62,194.92,403.52,195.44,390.13,200.53Z" transform="translate(-104.57 0.21)"/><path class="cls-17" d="M411.82,206.64c-2.44,9.5-7.46,16.29-19.78,21C397,216.18,403.92,210.78,411.82,206.64Z" transform="translate(-104.57 0.21)"/><path class="cls-42" d="M380.2,125.09c-3.23-11.26,2.11-15.14,9.34-18.38C394.18,116.06,385.8,118.62,380.2,125.09Z" transform="translate(-104.57 0.21)"/><path class="cls-28" d="M391.87,174.45l12.47-16.59C411.2,167.57,408.8,170.77,391.87,174.45Z" transform="translate(-104.57 0.21)"/><path class="cls-70" d="M514.19,225.4c-5.24-.75-6.26-3.22-4.65-5.9,1.27-2.11,3.65-4.4,5.93-4.9,3.1-.69,5.71,2.65,4.79,4.93C519.17,222.2,515.78,224,514.19,225.4Z" transform="translate(-104.57 0.21)"/><path class="cls-71" d="M501.93,207.26c-3.84,0-6.12-1.25-5-3.34,1.43-2.76,3.84-5.66,6.58-6.95,3.31-1.56,5.48,1.88,4.42,4.31C506.71,204,503.48,205.8,501.93,207.26Z" transform="translate(-104.57 0.21)"/><path class="cls-8" d="M479.83,184.78c-3,4.54-3.65,12-10.87,10.11-1.42-.37-3.52-3.69-3.08-4.7C468.53,184.13,475,186.75,479.83,184.78Z" transform="translate(-104.57 0.21)"/><path class="cls-44" d="M499.78,216.85c-4.08,6.57-6.3,12.73-11.49,10.48-4.3-1.86-.5-5.55,2.44-7.3C492.34,219.07,494.32,218.72,499.78,216.85Z" transform="translate(-104.57 0.21)"/><path class="cls-28" d="M391.54,240.43c-.2,7.43-3.56,10.26-10.55,11C381.53,244.46,385,241.76,391.54,240.43Z" transform="translate(-104.57 0.21)"/><polygon class="cls-72" points="301.97 242.27 301.6 241.1 302.61 241.22 301.97 242.27"/><path class="cls-59" d="M1353.22,50.11c11.13-11.76,16.67-30.84,41.62-29.94C1382.38,35.64,1369.85,45.56,1353.22,50.11Z" transform="translate(-104.57 0.21)"/><path class="cls-17" d="M1299.06,60.71q-15.33,16.51-30.65,33.05c-7.69-.45-5.19-4.85-3.53-8.92l17-17.41C1286.27,61.85,1289.66,53.76,1299.06,60.71Z" transform="translate(-104.57 0.21)"/><path class="cls-73" d="M1299.06,60.71c-7.46-2.09-10.76,6.23-17.18,6.72-1.12-16.2,13.7-20.28,22.46-29l-.26-.26C1308,46.94,1303.84,53.89,1299.06,60.71Z" transform="translate(-104.57 0.21)"/><path class="cls-74" d="M1333.49,144.89c-5,4.84-9.79,10.83-15.9,14.7-3.76,2.38-6.49-3.14-6.54-6.11-.15-8.49,7.38-11,13.48-14.08C1328.38,137.49,1331.09,140.05,1333.49,144.89Z" transform="translate(-104.57 0.21)"/><path class="cls-75" d="M1273.69,124c-6-11.39,3.62-16,10.59-18.62,5.39-2,10.91,2.43,6.71,10.13C1286.43,120.7,1284,130.17,1273.69,124Z" transform="translate(-104.57 0.21)"/><path class="cls-13" d="M1304.34,38.46c1.78-13.53,10.1-18.16,25.08-17.62-6.59,11.05-14.41,16.39-25.34,17.37Z" transform="translate(-104.57 0.21)"/><path class="cls-56" d="M1273.69,124c7.46.55,11.31-6.09,17.3-8.49,1,10.38-4.4,16.9-13.26,21.27-1.49,1.94-2.84,1.94-4-.28Z" transform="translate(-104.57 0.21)"/><path class="cls-13" d="M1340,36c1,14.18-12.76,13.6-19.23,20.35Z" transform="translate(-104.57 0.21)"/><path class="cls-76" d="M1282.37,225.45c3.71-8.76,8.19-14.85,16.16-20.6C1301.47,219,1295.13,223.68,1282.37,225.45Z" transform="translate(-104.57 0.21)"/><path class="cls-38" d="M1369.41,154.94c.26-4.91-3.73-13,5.88-11.61,3.06.44,17.45-3,10.11,10.27C1379.77,150.63,1374.81,155.41,1369.41,154.94Z" transform="translate(-104.57 0.21)"/><path class="cls-77" d="M1273.88,190.83c6.15-6.56,9.65-13.55,18.9-13.62C1287.54,182.11,1286.22,191.75,1273.88,190.83Z" transform="translate(-104.57 0.21)"/><path class="cls-78" d="M1370.44,263.66c.34,4-2.84,4.24-5.52,4.58-2.83.35-6.06-.06-6.81-3.19-1-4.05,2.74-4.15,5.37-4.52C1366.31,260.14,1369,260.65,1370.44,263.66Z" transform="translate(-104.57 0.21)"/><path class="cls-39" d="M1273.69,136.45a17.62,17.62,0,0,1,4,.28c1.33,9-5.29,12.91-10.68,18.5C1261.38,145.13,1270.84,142.12,1273.69,136.45Z" transform="translate(-104.57 0.21)"/><path class="cls-79" d="M1369.41,154.94c5.22-1.74,9.7-12.07,16-1.34C1380.11,154.52,1375.14,159.16,1369.41,154.94Z" transform="translate(-104.57 0.21)"/><path class="cls-80" d="M1264.88,84.84q1.75,4.45,3.53,8.92c-.56,2.86-3.62,5.94-5,4.58C1258.94,93.89,1261.55,89.09,1264.88,84.84Z" transform="translate(-104.57 0.21)"/><path class="cls-44" d="M1292,259.12c4-4.36,8.6-5.9,14.86-5.85C1303.65,261.58,1298.83,262.6,1292,259.12Z" transform="translate(-104.57 0.21)"/><path class="cls-81" d="M1524.18,141.05c-1.3-14.78-4.57-29-3.11-42.7,1.14-10.75-5.52-28.07,14.15-30.31,14.75-1.68,31.53-8.89,40.77,11.74,7.9,17.65,4.67,31.49-10.52,43C1553.49,131.93,1540.51,138.81,1524.18,141.05Z" transform="translate(-104.57 0.21)"/><path class="cls-82" d="M1528.11,21.83l20.72-4.77c-32.9,29.31-55.74,62.22-89.36,84.17-4.61-8.72-5.23-17.84,2.45-24.55C1483.49,57.83,1500.31,33.3,1528.11,21.83Z" transform="translate(-104.57 0.21)"/><path class="cls-83" d="M1571.33,173.75c-2.29,4.91,4.77,10.47-1,15.21-16.21-10.55-8.44-20.76.25-31A48.21,48.21,0,0,0,1583,139.28c14.26-13.3,29-25.9,47.44-33.43-4.17,14.64-5.58,30.72-21.09,39.42-6.33,3.38-12.48,7-17.13,12.63l.18-.14C1585.27,163,1579.22,169.55,1571.33,173.75Z" transform="translate(-104.57 0.21)"/><path class="cls-84" d="M1528.11,21.83C1506.78,41.27,1485.78,61.08,1464,80c-7.73,6.68-2.85,14.26-4.48,21.26-8.63-15.12-7.86-30.15.48-45.1,4.44,5.48,8.66,6.24,12.93-.31,5-7.71,12.57-12.62,20.34-17.21C1502.35,27.91,1513.12,20.56,1528.11,21.83Z" transform="translate(-104.57 0.21)"/><path class="cls-60" d="M1630.42,105.85c-11.53,17.08-31.59,23.32-46.62,36a3.58,3.58,0,0,1-4.46-.93c.44-14.66,15.93-18.64,21.5-29.66,3.18-10,10.39-17.1,18.67-22.63,12.48-8.36,15-2.16,12.38,9.58Z" transform="translate(-104.57 0.21)"/><path class="cls-28" d="M1466.61,110.41l35.9-34.35C1506.48,94.31,1495.1,105.75,1466.61,110.41Z" transform="translate(-104.57 0.21)"/><path class="cls-13" d="M1493.22,38.61c-8,13-18.51,23.62-29.9,34-5.81-5.6-2.44-11.38-3.37-16.44C1470.19,48.72,1478.79,38.23,1493.22,38.61Z" transform="translate(-104.57 0.21)"/><path class="cls-35" d="M1466.86,221.69c-10.68-32.81-6.67-40,25.81-46.53,2.9,1.24,3,2.6.18,4.08a1.51,1.51,0,0,0-.34,2.33C1481.6,193.46,1474.82,207.94,1466.86,221.69Z" transform="translate(-104.57 0.21)"/><path class="cls-51" d="M1631.89,98.16c-1.4-4.94,2.25-17.58-9.79-6.12-6.91,6.57-14.16,12.79-21.26,19.17-4-5.79-4-11.58,0-17.36,6.15-3.33,10.83-8.59,16.63-12.38C1633.84,77.26,1639,82.51,1631.89,98.16Z" transform="translate(-104.57 0.21)"/><path class="cls-85" d="M1466.86,221.69c-1.33-19.56,8.7-32,25.65-40.12C1489.54,198.44,1484.11,213.77,1466.86,221.69Z" transform="translate(-104.57 0.21)"/><path class="cls-51" d="M1506,127.82c3,5.64,5.47,11.38,4,18-9.82-4.41-11,13-21,8.16-2.93-5.75-11.71-6.12-12.77-13.6C1485,133.59,1491.71,121.86,1506,127.82Z" transform="translate(-104.57 0.21)"/><path class="cls-34" d="M1506,127.82c-12-.69-18.22,12.11-29.75,12.54,3.87-14.59,16.59-21.79,28.71-34.92C1505.39,115.11,1505.69,121.46,1506,127.82Z" transform="translate(-104.57 0.21)"/><path class="cls-80" d="M1613.67,52.5c-5.12,6.3-8.76,11.39-13.06,15.87-2.86,3-5.17,10.69-10.88,4.85-3.91-4-4.8-10.43,2.23-13.84C1598,56.45,1603.05,50.71,1613.67,52.5Z" transform="translate(-104.57 0.21)"/><path class="cls-11" d="M1585.44,49.78c7.72-4.72,7.28-19.24,19.92-17.29,2.44.38,6.4,6.78,6,7.22C1604.81,47.09,1595.06,47.73,1585.44,49.78Z" transform="translate(-104.57 0.21)"/><path class="cls-86" d="M1527.77,158.77c4.72-5.59,10.13-9.6,17.86-6.12,1.53.69,4,3.42,1.26,5-6.21,3.54-7.57,17.31-19.37,9.32C1525.08,164.13,1525,161.41,1527.77,158.77Z" transform="translate(-104.57 0.21)"/><path class="cls-20" d="M1489,154c3.7-3.82,8-7.25,11-11.53,7.85-11.15,6.46,3,10,3.37-4.35,7.69-11.63,13.54-19.31,15.18C1481.12,163,1489.87,156.43,1489,154Z" transform="translate(-104.57 0.21)"/><path class="cls-87" d="M1579.34,140.87l4.46.93c4.71,12.66-4.77,14-13.18,16.19C1570.24,150.65,1571.57,144.15,1579.34,140.87Z" transform="translate(-104.57 0.21)"/><path class="cls-43" d="M1527.77,158.77c-.08,2.72-.17,5.44-.25,8.16-8-1.78-11,8.89-22.4,6.82C1511.24,164.49,1516.48,158,1527.77,158.77Z" transform="translate(-104.57 0.21)"/><path class="cls-88" d="M1608.92,75.56c3.1-11.59,7.14-16.24,15-17.07.68-.08,2.27,1.88,2.29,2.92C1626.4,70.21,1618.35,69.78,1608.92,75.56Z" transform="translate(-104.57 0.21)"/><path class="cls-89" d="M1477.59,155.33c-4.17,6.63-7.26,14.07-16,16C1459.07,157.32,1469.22,157,1477.59,155.33Z" transform="translate(-104.57 0.21)"/><path class="cls-90" d="M1571.33,173.75c5.64-7.1,10.29-15.49,21-16C1588.87,167.63,1582.05,173.2,1571.33,173.75Z" transform="translate(-104.57 0.21)"/><path class="cls-91" d="M1568.27,33.59c7.81-10.49,13.42-12,20.71-7.07C1584.48,31.87,1578.64,32.61,1568.27,33.59Z" transform="translate(-104.57 0.21)"/><path class="cls-92" d="M1592.2,157.9c1.51-9.8,6.5-15,17.13-12.63C1606,152.69,1601.29,158.18,1592.2,157.9Z" transform="translate(-104.57 0.21)"/><path class="cls-13" d="M1496.23,261c-1.27,4.23-5,4.1-8.49,3.64-1.5-.2-4.15-2.35-4-2.87,1.31-3.94,4.94-4.53,8.58-4.79C1495,256.76,1496.1,258.26,1496.23,261Z" transform="translate(-104.57 0.21)"/><path class="cls-66" d="M1459.48,139.32c1.13-10.53,6-13.89,16.15-16.37C1471.7,131.54,1467.64,135.66,1459.48,139.32Z" transform="translate(-104.57 0.21)"/><path class="cls-27" d="M1582.8,223.75c5.39-8.07,7.33-13.43,13.8-13.27,1.22,0,2.37,2.91,3.56,4.48Z" transform="translate(-104.57 0.21)"/><path class="cls-93" d="M1617.49,81.47c-3.58,6.7-7.34,13.18-16.63,12.38C1602.91,85.12,1609.91,82.91,1617.49,81.47Z" transform="translate(-104.57 0.21)"/><path class="cls-94" d="M1528.32,49.53c4.6-5.22,6.89-11.9,16-9.39C1540.79,46.58,1537.14,51.06,1528.32,49.53Z" transform="translate(-104.57 0.21)"/><path class="cls-95" d="M1558,51.21c5.28-4.65,9.08-9.37,13.31-4.19s-2.06,4.63-4.65,5.23C1564.83,52.66,1562.76,51.86,1558,51.21Z" transform="translate(-104.57 0.21)"/><path class="cls-46" d="M1492.85,179.24l-.18-4.08,4.59-.27a3.12,3.12,0,0,1,1.15,2.67c-.11,1-.29,1.5-.53,1.5Z" transform="translate(-104.57 0.21)"/><path class="cls-96" d="M1497.88,179.06c-.24-1.38-.45-2.77-.62-4.16C1500.48,175.84,1501.63,177.09,1497.88,179.06Z" transform="translate(-104.57 0.21)"/><path class="cls-35" d="M409.1,341.16c-12.86,6.89-21.3,20.06-38.79,26.38,4.54-16.18,12.55-25.83,25.71-31.67C401.12,335.83,408.25,330.91,409.1,341.16Z" transform="translate(-104.57 0.21)"/><path class="cls-48" d="M338.59,448.55c5.29-15.75,11.51-26.77,21.34-35.81,2.68-2.45,5.63-5.05,9-2.22,3.86,3.24.85,6.17-1.86,8.35C357.25,426.77,354.12,440.48,338.59,448.55Z" transform="translate(-104.57 0.21)"/><path class="cls-54" d="M336.64,536c-3.53-20.18,11.21-22,26.35-31C355.87,521.08,346.45,527.61,336.64,536Z" transform="translate(-104.57 0.21)"/><path class="cls-25" d="M354.16,364.58c-2.42,10.48-7.86,18.77-16.5,26.2C332.05,374.41,342.13,368.76,354.16,364.58Z" transform="translate(-104.57 0.21)"/><path class="cls-24" d="M338.18,417.4c3.09-11.55,10.71-18.54,20.65-23.11C357.27,407.08,347.6,412.11,338.18,417.4Z" transform="translate(-104.57 0.21)"/><path class="cls-43" d="M354.73,557.2c5.29-7.24,8.88-17.27,23.21-14C371.89,552.51,363.75,555.55,354.73,557.2Z" transform="translate(-104.57 0.21)"/><path class="cls-11" d="M441.28,353c4.09-6.68,5.25-17.16,16.34-15.82a3.59,3.59,0,0,1,2.15,2.8C458.16,350.11,448.92,350.17,441.28,353Z" transform="translate(-104.57 0.21)"/><path class="cls-20" d="M421.52,350.33c-1.42-11.93,4-14.86,16.24-12.46Z" transform="translate(-104.57 0.21)"/><path class="cls-97" d="M447.94,575.53c-2.67-.42-7.19.3-6.76-4.91.28-3.38,3.77-3.85,6.55-3.68,3.2.2,7.88-.68,7.4,4.7C454.83,575,451.5,575.36,447.94,575.53Z" transform="translate(-104.57 0.21)"/><path class="cls-13" d="M420.2,467.84c-3-6.9.27-11.83,4.69-16.16.48-.47,4.75,1.29,4.83,2.22C430.27,460.64,427.84,465.83,420.2,467.84Z" transform="translate(-104.57 0.21)"/><path class="cls-62" d="M468.94,358.66c-.5,1.14-1.1,4.4-2.15,4.55-3.25.46-4.89-2.25-5.54-5.11s-.16-6,3.37-6.28C468.43,351.55,468.51,355,468.94,358.66Z" transform="translate(-104.57 0.21)"/><path class="cls-98" d="M341.69,578.78c3.34-4.54,6.86-7.9,12.41-6.4,1,.25,2.09,4.56,1.47,5.1C351.51,581,346.83,581.1,341.69,578.78Z" transform="translate(-104.57 0.21)"/><path class="cls-99" d="M409.1,341.16c-1.67-8.27-8.71-3.56-13.08-5.29,4.66-4.4,10.08-4.9,15-1.24C413.4,336.44,411.81,339.52,409.1,341.16Z" transform="translate(-104.57 0.21)"/><path class="cls-100" d="M817.24,392.46c13.92,14.76,12.83,18.82-8,29.68a10.47,10.47,0,0,1-3.48-8.29C807.28,405.52,814.37,400.1,817.24,392.46Z" transform="translate(-104.57 0.21)"/><path class="cls-101" d="M808.34,551.25c3.46-12.28,9.18-18.34,16.66-22.31,2.33-1.24,5.16,2.9,4.64,5.64C827.81,544.29,819.73,546.86,808.34,551.25Z" transform="translate(-104.57 0.21)"/><path class="cls-102" d="M813.67,456c-3.56,1-5.3,10.38-10.89,2.16-1.81-2.67-7-5-3.68-8.25,4.54-4.49,9.13-11.59,17.69-6.65C821.26,448.8,816.48,452.15,813.67,456Z" transform="translate(-104.57 0.21)"/><path class="cls-103" d="M813.67,456l3.12-12.74c2.36-4.52,6-8.29,11-8.66,3.65-.27,2.79,4.14,2.63,6.46C829.67,451.14,823.13,455.24,813.67,456Z" transform="translate(-104.57 0.21)"/><path class="cls-103" d="M851.93,371.58c5.19-9.45,12.3-17,24.91-19.47L856.72,376Z" transform="translate(-104.57 0.21)"/><path class="cls-41" d="M808.7,575.2l-12.08,8.71c-2.2-17.17,10.12-20.24,20.32-25.08C824.38,569.31,814,571,808.7,575.2Z" transform="translate(-104.57 0.21)"/><path class="cls-13" d="M826.41,559.06c6.85-2.42,11.6.82,16.21,5.83-6.3,4.59-11.76,10-20,10.13C816.06,567.87,822.28,563.71,826.41,559.06Z" transform="translate(-104.57 0.21)"/><path class="cls-104" d="M826.41,559.06q-1.9,8-3.8,16l-13.91.18c2.3-5.68,9.08-9.14,8.24-16.37C820,562.22,823.64,543.19,826.41,559.06Z" transform="translate(-104.57 0.21)"/><path class="cls-20" d="M907.66,360.89c3.49-8.31,6.54-14.54,15.2-14,1.35.09,3.78,3.86,3.6,4.06C922.07,355.9,918.33,362.14,907.66,360.89Z" transform="translate(-104.57 0.21)"/><path class="cls-41" d="M865.46,383.68c4.42-10.09,13.32-10.8,22.31-19.49C884.49,381.09,877,383.77,865.46,383.68Z" transform="translate(-104.57 0.21)"/><path class="cls-99" d="M856.24,472.38c2-16.8,9.47-18.74,21.66-7.79C870.88,467.74,866,476.72,856.24,472.38Z" transform="translate(-104.57 0.21)"/><path class="cls-105" d="M912.94,471.62c-6.78,7.38-13.08,7.09-20.5,4.22C897.64,467.46,903.91,467.6,912.94,471.62Z" transform="translate(-104.57 0.21)"/><path class="cls-79" d="M856.24,472.38c7.85-.87,12.81-9.62,21.66-7.79C873.49,475,866,479.8,854.49,477a1.88,1.88,0,0,1-.54-1.69A22.79,22.79,0,0,1,856.24,472.38Z" transform="translate(-104.57 0.21)"/><path class="cls-35" d="M817.24,392.46c3.65,9.54-5.37,14.05-8.46,20.91-8.45.24-5.8-4.94-4.66-9.37Z" transform="translate(-104.57 0.21)"/><path class="cls-13" d="M865.26,578.56c3.42-5.3,5.81-10.6,12.74-8.3,1.1.37,2.4,3.73,1.84,4.76C877.12,580,872.52,580.68,865.26,578.56Z" transform="translate(-104.57 0.21)"/><path class="cls-106" d="M906.14,378.44c6.1-4.37,10.91-7.46,22.26-4.22C919.81,380.09,914.18,380.48,906.14,378.44Z" transform="translate(-104.57 0.21)"/><path class="cls-107" d="M804.12,404c.53,3.62.71,7.42,4.66,9.37.15,2.92.3,5.85.44,8.77C794.84,419.59,799,411.93,804.12,404Z" transform="translate(-104.57 0.21)"/><path class="cls-8" d="M1162.17,144c-3,23.63-10.18,42.16-32.64,52.49-23.26,10.69-48.26,11.52-72.74,15.5-8.63,1.41-11-3.63-11.25-11.25-1.19-40.93-2.76-81.84-7.91-122.52-1-7.64,2-12.14,10-13.11,36.47-4.42,95.08,28.58,109.64,62.11C1159.77,132.94,1160.83,139.28,1162.17,144Z" transform="translate(-104.57 0.21)"/><path class="cls-108" d="M1011.28,64.55c-.64-.3-1.86-.65-1.84-.89,1.46-15.89,32.15-44.32,49.09-45.57,2.57,2.54,2.65,5.08,0,7.62Z" transform="translate(-104.57 0.21)"/><path class="cls-41" d="M1003.9,102.71,993,112.64c-8.83-24.15,10.11-32.43,22.25-44.24,4.07-.87,12.08-7,6.55,4.89-1.1,2.36-1.47,5.06-2.18,7.6C1018.65,91.17,1012.85,98.05,1003.9,102.71Z" transform="translate(-104.57 0.21)"/><path class="cls-79" d="M1198.74,130.48c2.79,28.11-15.24,38.52-29.19,53.1C1167.76,159,1181.68,145.38,1198.74,130.48Z" transform="translate(-104.57 0.21)"/><path class="cls-40" d="M1058.53,25.71V18.09c11.73,1.18,24.11-.6,34.32,7.44l-39,27.45-3.4-3.78c5.42-6.93,11-13.76,16.16-20.84,1.46-2,3.88-5.57-.91-6.28C1063.53,21.77,1060.93,24.41,1058.53,25.71Z" transform="translate(-104.57 0.21)"/><path class="cls-40" d="M1097.44,34.7a13.92,13.92,0,0,0,9.56-8.31c5.73.3,13.17,1.29,14.51,6.19,1.76,6.39-6.73,7.5-11,10.42-6.07,4.19-12.88,7.33-22.66,12.74Z" transform="translate(-104.57 0.21)"/><path class="cls-35" d="M1007,158.12l-4.55.29c-5.2-7.74.68-13.19,4-19.2,4.68-6.56,10-12.43,17.91-15.26C1030.13,138.45,1030.13,138.45,1007,158.12Z" transform="translate(-104.57 0.21)"/><path class="cls-15" d="M1150.76,214.85c13.8-4.67,18.7-19.78,31.48-25.44C1176.45,203.33,1168,214.28,1150.76,214.85Z" transform="translate(-104.57 0.21)"/><path class="cls-109" d="M1019.42,200.34c3.44-.23,7.25-14.76,10-.45,2.43,12.63-6.24,17.35-17.91,17.55C1005.3,207.73,1012.88,204.27,1019.42,200.34Z" transform="translate(-104.57 0.21)"/><path class="cls-90" d="M1058.11,231.13c-6.47,11.54-13.29,18.87-26.42,25.05C1036.73,241.62,1042,232.71,1058.11,231.13Z" transform="translate(-104.57 0.21)"/><path class="cls-25" d="M998.88,217.81c-7.5-12.65-6.68-14.07,12.47-21.56C1015.68,208.25,1006.35,212.5,998.88,217.81Z" transform="translate(-104.57 0.21)"/><path class="cls-24" d="M1029.16,168.11c-5.53,5.85-9.93,13.1-20.28,15.33,3.2-10.48,9.4-17.91,15.38-25.47C1033,158,1030,163.57,1029.16,168.11Z" transform="translate(-104.57 0.21)"/><path class="cls-48" d="M1160.82,85.52c6.75-7.09,7.24-16,16.07-16.08,1.85,0,5.72,4.43,5.29,5.73C1179.41,83.54,1172.55,85.71,1160.82,85.52Z" transform="translate(-104.57 0.21)"/><path class="cls-110" d="M1083.47,248.59c-4,6.53-10.57,9.22-17.39,11.25-2,.59-6.58,1.43-5.26-3.22.66-2.3,3.85-3.9,5.9-5.82C1071.69,245.56,1075.81,234,1083.47,248.59Z" transform="translate(-104.57 0.21)"/><path class="cls-35" d="M1006.88,111.38l1.29-8.52c3.18-7,6.37-13.91,16-13.14C1026.51,103.28,1019.56,109.57,1006.88,111.38Z" transform="translate(-104.57 0.21)"/><path class="cls-16" d="M1192.1,98.61c8.85,14.06-6.73,12.14-12.75,19.17V102C1183.62,101,1186.5,94.8,1192.1,98.61Z" transform="translate(-104.57 0.21)"/><path class="cls-111" d="M998.88,217.81l12.47-21.56,8.07,4.09c-1.43,6.25-8.71,9.84-7.91,17.1C1007.36,219.54,1003.17,220.47,998.88,217.81Z" transform="translate(-104.57 0.21)"/><path class="cls-112" d="M1140.29,56.64c1.1,9.49-1.31,14.47-9,14.84-2.18.11-6.66-3.24-6.44-4.23C1126.45,60.15,1133.61,60,1140.29,56.64Z" transform="translate(-104.57 0.21)"/><path class="cls-48" d="M1153.22,47.42c16.37,7.75,12.89,14.32-2.23,21.47.7-6.32,1.25-11.38,1.81-16.43C1151.41,50.65,1151.62,49,1153.22,47.42Z" transform="translate(-104.57 0.21)"/><path class="cls-112" d="M1153.22,47.42l-.42,5c-7.27-10.39-16.18-1.62-26.06.2C1135,35.41,1143.77,38.65,1153.22,47.42Z" transform="translate(-104.57 0.21)"/><path class="cls-113" d="M1083.47,248.59c-6.56-6.47-11.14,1.68-16.75,2.21-4.67-9.84,3.65-13,9.53-13.88C1083.64,235.87,1083.91,242.85,1083.47,248.59Z" transform="translate(-104.57 0.21)"/><path class="cls-114" d="M1024.19,89.72l-16,13.14c-1.43,0-2.85,0-4.27-.15,2.94-8.91,10.05-14.87,15.76-21.82Z" transform="translate(-104.57 0.21)"/><path class="cls-115" d="M1024.34,124l-13.84,16.79c-4,.46-5.16-2-5.53-5.22.25-4.48,5.17-5.88,6.5-9.65,0,0-1-1.81-1-1.81C1015.05,121.26,1019.68,121,1024.34,124Z" transform="translate(-104.57 0.21)"/><path class="cls-66" d="M996.22,263.48c4.48-5.25,8.75-9.36,12.16-6.24,5,4.62.44,7-4.41,7.5C1002,264.93,999.94,264.13,996.22,263.48Z" transform="translate(-104.57 0.21)"/><path class="cls-41" d="M1192.1,98.61c-4.19,1.36-7.74,5.07-12.75,3.41,3-4.14,1.71-12.22,9.51-11.73C1193.67,90.58,1192.66,95.15,1192.1,98.61Z" transform="translate(-104.57 0.21)"/><path class="cls-116" d="M1170.24,100.63l-6.39,5c-.57-1.73-2.14-4.13-1.5-5a14.57,14.57,0,0,1,6.19-5.07C1170.48,94.7,1172.77,95.71,1170.24,100.63Z" transform="translate(-104.57 0.21)"/><path class="cls-107" d="M1029.16,168.11c-.73-3.81-.87-7.9-4.9-10.14.46-3.2,3.77-6.21,5.32-4.67C1034.09,157.76,1031.63,163.19,1029.16,168.11Z" transform="translate(-104.57 0.21)"/><path class="cls-101" d="M1005.33,235c-1.25,6.38-4.93,9.18-10.05,11.59C993.39,238,997,235.07,1005.33,235Z" transform="translate(-104.57 0.21)"/><path class="cls-82" d="M1300,359.15c-6.4,8.46-12.73,17-19.21,25.34-2.34,3-4.36,8.14-8.48.88-1.86-3.27-6.93-4.81-2.16-9.64,8.46-8.58,16.6-17.48,24.87-26.24C1303.15,349.44,1301.86,354.15,1300,359.15Z" transform="translate(-104.57 0.21)"/><path class="cls-59" d="M1328.57,551.25c-5.67,10.65-5,25.68-20.58,28.12-3.49.55-9.39-2.54-8.18-4.77C1305.91,563.31,1316.22,556,1328.57,551.25Z" transform="translate(-104.57 0.21)"/><path class="cls-17" d="M1310.12,365.65c9.1-12.81,16.15-28,34.23-31.52C1334.5,346.17,1325.36,358.86,1310.12,365.65Z" transform="translate(-104.57 0.21)"/><path class="cls-28" d="M1370.25,542.52c.82-14.28,9.79-24.29,20.35-37.85C1394.41,525.71,1376.65,531,1370.25,542.52Z" transform="translate(-104.57 0.21)"/><path class="cls-15" d="M1300,359.15c-.46-3.82-1-7.62-5-9.66,6.09-8.12,11.23-17.66,26-16.55Z" transform="translate(-104.57 0.21)"/><path class="cls-103" d="M1348,357.21c-2.48-9.46,1.22-15.71,8.34-19.43,1.75-.91,8.75,3.18,8.58,4.26C1363.51,351.13,1356.15,354.25,1348,357.21Z" transform="translate(-104.57 0.21)"/><path class="cls-41" d="M1363.41,506.7c.76-10.9,5.3-19.66,17.42-27.74C1380.92,494.49,1368.18,498.12,1363.41,506.7Z" transform="translate(-104.57 0.21)"/><path class="cls-24" d="M1343.21,563.86c-3.19,8.39-4.42,15.79-13.68,15.48-1.27-.05-3.74-2.87-3.48-3.83C1328,568.28,1332.73,564.1,1343.21,563.86Z" transform="translate(-104.57 0.21)"/><path class="cls-33" d="M1322.16,447.91c-6.85,6.22-4.43,17.4-15.47,14.53-2.32-.6-6.08-4.39-5.83-4.82C1304.6,451.17,1310.67,448.45,1322.16,447.91Z" transform="translate(-104.57 0.21)"/><path class="cls-117" d="M1291.65,446.65c3.7-5.89,4.22-13.74,13.16-11.11,1.69.5,4.29,3.59,4,4.15C1305.72,445.33,1301,448.46,1291.65,446.65Z" transform="translate(-104.57 0.21)"/><path class="cls-118" d="M1287.44,554.91c-4.26,8.73-5.81,16.7-17.24,11.08C1273.76,559.35,1279.28,557.56,1287.44,554.91Z" transform="translate(-104.57 0.21)"/><path class="cls-85" d="M1377.48,375c-16.39-9.73-.62-11.94,4-16.77C1386.55,365.3,1383.43,370.47,1377.48,375Z" transform="translate(-104.57 0.21)"/><path class="cls-119" d="M1377.48,375c2.78-5.25,5.82-10.44,4-16.77,3.27.6,8.35-.2,7.74,4.76C1388.43,369.32,1386,375.4,1377.48,375Z" transform="translate(-104.57 0.21)"/><path class="cls-90" d="M1288.41,542.9c-3.8,3.73-6.89,8.61-13.33,5.88-.56-.23-.88-2.57-.39-3.42C1278.1,539.41,1282.75,539,1288.41,542.9Z" transform="translate(-104.57 0.21)"/><path class="cls-116" d="M1307.08,548.26c2.19-.74,4.2-.55,4.84,1.93.94,3.64-2.38,4.84-4.55,6.28-3.28,2.18-5.56.32-5.82-3S1304.48,549.23,1307.08,548.26Z" transform="translate(-104.57 0.21)"/><path class="cls-120" d="M1348.14,489.5c-1.27-1.51-4.11-3.4-4.22-5.45-.08-1.51,3.38-3.2,5.27-4.82a52.25,52.25,0,0,1,3.22,7.09C1353.18,488.92,1351.31,489.63,1348.14,489.5Z" transform="translate(-104.57 0.21)"/><path class="cls-121" d="M212.67,529.16c3.32-22.88,20-33.32,33.37-46.92C253.15,507.05,251.77,509,212.67,529.16Z" transform="translate(-104.57 0.21)"/><path class="cls-11" d="M202,559c-9.73,8.56-19.39,17.22-29.24,25.65-2.87,2.46-6.57,3.38-9.32-.07-3.71-4.67,1.67-5.8,3.89-7.43,10.34-7.62,19.14-17.62,31.39-22.4Z" transform="translate(-104.57 0.21)"/><path class="cls-103" d="M185.68,587.45c10.09-14.36,23.32-18.61,39.66-27.23C208.29,585.64,208.29,585.64,185.68,587.45Z" transform="translate(-104.57 0.21)"/><path class="cls-11" d="M245.41,413c-5.41,7.24-10.73,14.54-16.28,21.68-2,2.65-4.6,4.91-7.85,8.3-6.93-23,10.86-24.66,18.89-34Z" transform="translate(-104.57 0.21)"/><path class="cls-13" d="M253.64,374.78c.32,12.78-3.1,19.67-17.86,23.22C239.94,387.66,244.29,381.64,253.64,374.78Z" transform="translate(-104.57 0.21)"/><path class="cls-20" d="M138.16,554.5c-4.58,6.5-5.24,13.77-13.24,11.92-1.56-.36-4-3.48-3.66-4.37C123.68,556,129.44,555.76,138.16,554.5Z" transform="translate(-104.57 0.21)"/><path class="cls-62" d="M219.86,545.51c-1.2,4.21,1.81,10.85-6.08,11.12-1.51.06-4.39-2.35-4.46-3.72-.32-7,5.42-6.92,10.25-7.7Z" transform="translate(-104.57 0.21)"/><path class="cls-112" d="M166.13,550.79c-4.49,5.14-9.26,9.66-13.29,5.87-4.42-4.17,0-7.24,5-7.52C159.9,549,162,549.91,166.13,550.79Z" transform="translate(-104.57 0.21)"/><path class="cls-46" d="M219.57,545.21l1.09-1.58-.81,1.89Z" transform="translate(-104.57 0.21)"/><path class="cls-61" d="M645.21,141.33c-1.82,13.75-12.33,17.95-21.58,25.3C629.59,149,629.59,149,645.21,141.33Z" transform="translate(-104.57 0.21)"/><path class="cls-122" d="M636.25,93.53c5.44-8.61,3.84-18.07,4.66-27.62,4.9,9.24,6.87,18.46.06,28.1C639.2,95.77,637.63,95.52,636.25,93.53Z" transform="translate(-104.57 0.21)"/><path class="cls-90" d="M643.66,217.91c3.81,12.85-3,17-14.15,20.85C629.89,227.73,637,223.77,643.66,217.91Z" transform="translate(-104.57 0.21)"/><path class="cls-79" d="M625.25,57.72l15-20.92C645.32,54,634.54,55.25,625.25,57.72Z" transform="translate(-104.57 0.21)"/><path class="cls-13" d="M622.75,215.17c6.89-10.42,9.84-16.62,18.88-18.3C641.16,207.66,634,209.47,622.75,215.17Z" transform="translate(-104.57 0.21)"/><path class="cls-119" d="M619.94,23.11c-.27,3.76-1.37,7.49-5.65,7.61-3.73.11-3.28-3.6-3.34-6.2-.06-2.92.71-5.7,4-6.43C619,17.19,619.34,20.4,619.94,23.11Z" transform="translate(-104.57 0.21)"/><path class="cls-36" d="M636.25,93.53,641,94c-1.27,5.77-5.38,8.79-10.84,11.13C628.61,99.11,632.29,96.25,636.25,93.53Z" transform="translate(-104.57 0.21)"/><path class="cls-123" d="M1006.72,43.36c-.52-2.73-.56-5.67-1.64-8.16-3.46-8,2.65-10,7.82-11.82,2.05-.73,6.26.27,7.35,1.89,4,5.94-2.35,8.48-5.3,11.77-2.26,2.53-5.58,4.12-8.42,6.13Z" transform="translate(-104.57 0.21)"/><path class="cls-60" d="M1011.47,125.87q-2.33,5.25-4.63,10.5C1004.73,143.92,1002,151,993.1,153,987.17,136,997.78,129.91,1011.47,125.87Z" transform="translate(-104.57 0.21)"/><path class="cls-124" d="M993.1,153l13.74-16.66,3.66,4.37-8,17.67C996.28,161.84,997.53,152.58,993.1,153Z" transform="translate(-104.57 0.21)"/><path class="cls-79" d="M1006.53,43.17c.93,8.39-5,11.84-11.68,15.84-3.16-11.18,1.46-15.56,11.87-15.65Z" transform="translate(-104.57 0.21)"/><path class="cls-125" d="M1557.42,821.88c.26-23.21,13.26-37.81,33.69-37.87,20.62-.07,35.62,16.81,35.18,39.57-.42,22-17.21,40.95-35.85,40.39C1571.21,863.39,1557.15,845.46,1557.42,821.88Z" transform="translate(-104.57 0.21)"/></svg>